<mxfile host="app.diagrams.net" agent="Mozilla/5.0 (Windows NT 10.0; Win64; x64) AppleWebKit/537.36 (KHTML, like Gecko) Chrome/131.0.0.0 Safari/537.36 Edg/131.0.0.0" version="24.9.0">
  <diagram name="CASO DE USO HORTA COMUNITÁRIA" id="8OGDP1xENLEpdx7w8IAe">
    <mxGraphModel dx="1026" dy="552" grid="1" gridSize="10" guides="1" tooltips="1" connect="1" arrows="1" fold="1" page="1" pageScale="1" pageWidth="827" pageHeight="1169" math="0" shadow="0">
      <root>
        <mxCell id="0" />
        <mxCell id="1" parent="0" />
        <mxCell id="WpQj7Trwxcfg_KmrJhuS-4" style="rounded=0;orthogonalLoop=1;jettySize=auto;html=1;endArrow=none;endFill=0;" parent="1" source="WpQj7Trwxcfg_KmrJhuS-1" target="WpQj7Trwxcfg_KmrJhuS-3" edge="1">
          <mxGeometry relative="1" as="geometry" />
        </mxCell>
        <mxCell id="WpQj7Trwxcfg_KmrJhuS-6" style="rounded=0;orthogonalLoop=1;jettySize=auto;html=1;endArrow=none;endFill=0;" parent="1" source="WpQj7Trwxcfg_KmrJhuS-1" target="WpQj7Trwxcfg_KmrJhuS-5" edge="1">
          <mxGeometry relative="1" as="geometry" />
        </mxCell>
        <mxCell id="WpQj7Trwxcfg_KmrJhuS-12" style="rounded=0;orthogonalLoop=1;jettySize=auto;html=1;entryX=0.5;entryY=1;entryDx=0;entryDy=0;endArrow=none;endFill=0;" parent="1" source="WpQj7Trwxcfg_KmrJhuS-1" target="WpQj7Trwxcfg_KmrJhuS-11" edge="1">
          <mxGeometry relative="1" as="geometry" />
        </mxCell>
        <mxCell id="WpQj7Trwxcfg_KmrJhuS-1" value="Usuário" style="shape=umlActor;html=1;verticalLabelPosition=bottom;verticalAlign=top;align=center;" parent="1" vertex="1">
          <mxGeometry x="50" y="275" width="60" height="110" as="geometry" />
        </mxCell>
        <mxCell id="WpQj7Trwxcfg_KmrJhuS-20" style="rounded=0;orthogonalLoop=1;jettySize=auto;html=1;endArrow=none;endFill=0;" parent="1" source="WpQj7Trwxcfg_KmrJhuS-2" target="WpQj7Trwxcfg_KmrJhuS-19" edge="1">
          <mxGeometry relative="1" as="geometry" />
        </mxCell>
        <mxCell id="WpQj7Trwxcfg_KmrJhuS-2" value="Administrador" style="shape=umlActor;html=1;verticalLabelPosition=bottom;verticalAlign=top;align=center;" parent="1" vertex="1">
          <mxGeometry x="654" y="580" width="60" height="110" as="geometry" />
        </mxCell>
        <mxCell id="WpQj7Trwxcfg_KmrJhuS-3" value="Cadastrar planta" style="ellipse;whiteSpace=wrap;html=1;" parent="1" vertex="1">
          <mxGeometry x="170" y="225" width="140" height="70" as="geometry" />
        </mxCell>
        <mxCell id="WpQj7Trwxcfg_KmrJhuS-5" value="Registrar colheita" style="ellipse;whiteSpace=wrap;html=1;" parent="1" vertex="1">
          <mxGeometry x="180" y="345" width="140" height="70" as="geometry" />
        </mxCell>
        <mxCell id="WpQj7Trwxcfg_KmrJhuS-7" value="&amp;lt;&amp;lt;include&amp;gt;&amp;gt;" style="edgeStyle=none;html=1;endArrow=open;verticalAlign=bottom;dashed=1;labelBackgroundColor=none;rounded=0;" parent="1" source="WpQj7Trwxcfg_KmrJhuS-3" target="WpQj7Trwxcfg_KmrJhuS-8" edge="1">
          <mxGeometry width="160" relative="1" as="geometry">
            <mxPoint x="320" y="255" as="sourcePoint" />
            <mxPoint x="480" y="255" as="targetPoint" />
          </mxGeometry>
        </mxCell>
        <mxCell id="WpQj7Trwxcfg_KmrJhuS-8" value="Selecionar tipo de planta" style="ellipse;whiteSpace=wrap;html=1;" parent="1" vertex="1">
          <mxGeometry x="410" y="220" width="140" height="70" as="geometry" />
        </mxCell>
        <mxCell id="WpQj7Trwxcfg_KmrJhuS-9" value="Inserir quantidade e data da colheita" style="ellipse;whiteSpace=wrap;html=1;" parent="1" vertex="1">
          <mxGeometry x="410" y="345" width="150" height="70" as="geometry" />
        </mxCell>
        <mxCell id="WpQj7Trwxcfg_KmrJhuS-10" value="&amp;lt;&amp;lt;include&amp;gt;&amp;gt;" style="edgeStyle=none;html=1;endArrow=open;verticalAlign=bottom;dashed=1;labelBackgroundColor=none;rounded=0;" parent="1" target="WpQj7Trwxcfg_KmrJhuS-9" edge="1">
          <mxGeometry width="160" relative="1" as="geometry">
            <mxPoint x="320" y="385" as="sourcePoint" />
            <mxPoint x="410" y="385" as="targetPoint" />
          </mxGeometry>
        </mxCell>
        <mxCell id="WpQj7Trwxcfg_KmrJhuS-11" value="Remover planta" style="ellipse;whiteSpace=wrap;html=1;" parent="1" vertex="1">
          <mxGeometry x="160" y="450" width="140" height="70" as="geometry" />
        </mxCell>
        <mxCell id="WpQj7Trwxcfg_KmrJhuS-13" value="Consultar horta" style="ellipse;whiteSpace=wrap;html=1;" parent="1" vertex="1">
          <mxGeometry x="650" y="345" width="140" height="70" as="geometry" />
        </mxCell>
        <mxCell id="WpQj7Trwxcfg_KmrJhuS-15" value="&amp;lt;&amp;lt;extend&amp;gt;&amp;gt;" style="edgeStyle=none;html=1;startArrow=open;endArrow=none;startSize=12;verticalAlign=bottom;dashed=1;labelBackgroundColor=none;rounded=0;exitX=1;exitY=0.5;exitDx=0;exitDy=0;" parent="1" source="WpQj7Trwxcfg_KmrJhuS-9" target="WpQj7Trwxcfg_KmrJhuS-13" edge="1">
          <mxGeometry width="160" relative="1" as="geometry">
            <mxPoint x="570" y="385" as="sourcePoint" />
            <mxPoint x="730" y="385" as="targetPoint" />
          </mxGeometry>
        </mxCell>
        <mxCell id="WpQj7Trwxcfg_KmrJhuS-19" value="Verificar histórico de plantio e colheita&amp;nbsp;" style="ellipse;whiteSpace=wrap;html=1;" parent="1" vertex="1">
          <mxGeometry x="430" y="520" width="140" height="70" as="geometry" />
        </mxCell>
        <mxCell id="WpQj7Trwxcfg_KmrJhuS-21" value="Gerar relatórios" style="ellipse;whiteSpace=wrap;html=1;" parent="1" vertex="1">
          <mxGeometry x="430" y="670" width="140" height="70" as="geometry" />
        </mxCell>
        <mxCell id="WpQj7Trwxcfg_KmrJhuS-22" style="rounded=0;orthogonalLoop=1;jettySize=auto;html=1;entryX=0.351;entryY=0.763;entryDx=0;entryDy=0;entryPerimeter=0;endArrow=none;endFill=0;" parent="1" source="WpQj7Trwxcfg_KmrJhuS-21" target="WpQj7Trwxcfg_KmrJhuS-2" edge="1">
          <mxGeometry relative="1" as="geometry" />
        </mxCell>
      </root>
    </mxGraphModel>
  </diagram>
</mxfile>
